<?xml version="1.0" encoding="UTF-8" standalone="no"?>
<!-- Generator: Adobe Illustrator 19.0.0, SVG Export Plug-In . SVG Version: 6.00 Build 0)  -->

<svg
   xmlns:dc="http://purl.org/dc/elements/1.1/"
   xmlns:cc="http://creativecommons.org/ns#"
   xmlns:rdf="http://www.w3.org/1999/02/22-rdf-syntax-ns#"
   xmlns:svg="http://www.w3.org/2000/svg"
   xmlns="http://www.w3.org/2000/svg"
   xmlns:xlink="http://www.w3.org/1999/xlink"
   xmlns:sodipodi="http://sodipodi.sourceforge.net/DTD/sodipodi-0.dtd"
   xmlns:inkscape="http://www.inkscape.org/namespaces/inkscape"
   version="1.1"
   id="Capa_1"
   x="0px"
   y="0px"
   viewBox="0 0 58 58"
   style="enable-background:new 0 0 58 58;"
   xml:space="preserve"
   sodipodi:docname="carimbador.svg"
   inkscape:version="0.92.0 r15299"><metadata
   id="metadata4525"><rdf:RDF><cc:Work
       rdf:about=""><dc:format>image/svg+xml</dc:format><dc:type
         rdf:resource="http://purl.org/dc/dcmitype/StillImage" /><dc:title></dc:title></cc:Work></rdf:RDF></metadata><defs
   id="defs4523"><linearGradient
     inkscape:collect="always"
     id="linearGradient4556"><stop
       style="stop-color:#000000;stop-opacity:1;"
       offset="0"
       id="stop4552" /><stop
       style="stop-color:#000000;stop-opacity:0;"
       offset="1"
       id="stop4554" /></linearGradient><linearGradient
     inkscape:collect="always"
     xlink:href="#linearGradient4556"
     id="linearGradient4574"
     x1="35.356537"
     y1="10.920095"
     x2="50.002804"
     y2="21.044672"
     gradientUnits="userSpaceOnUse"
     gradientTransform="matrix(0.72277143,0,0,0.72277143,9.009047,5.6640058)" /><linearGradient
     inkscape:collect="always"
     xlink:href="#linearGradient4556"
     id="linearGradient4574-7"
     x1="35.658764"
     y1="7.5956078"
     x2="60.731834"
     y2="19.986881"
     gradientUnits="userSpaceOnUse"
     gradientTransform="matrix(0.72277143,0,0,0.72277143,-16.375966,5.654637)" /></defs><sodipodi:namedview
   pagecolor="#ffffff"
   bordercolor="#666666"
   borderopacity="1"
   objecttolerance="10"
   gridtolerance="10"
   guidetolerance="10"
   inkscape:pageopacity="0"
   inkscape:pageshadow="2"
   inkscape:window-width="1280"
   inkscape:window-height="962"
   id="namedview4521"
   showgrid="false"
   showguides="true"
   inkscape:guide-bbox="true"
   inkscape:zoom="3.237069"
   inkscape:cx="-4.8953772"
   inkscape:cy="35.760729"
   inkscape:window-x="-8"
   inkscape:window-y="-8"
   inkscape:window-maximized="1"
   inkscape:current-layer="Capa_1"><sodipodi:guide
     position="29.038615,51.358189"
     orientation="0,1"
     id="guide4546"
     inkscape:locked="false" /></sodipodi:namedview>
<g
   id="XMLID_1_">
	<path
   id="XMLID_108_"
   style="fill:#C7A06B;"
   d="M53.614,53H4.386C3.621,53,3,52.379,3,51.614V40.386C3,39.621,3.621,39,4.386,39   h49.229C54.38,39,55,39.621,55,40.386v11.228C55,52.379,54.38,53,53.614,53" />
	<path
   id="XMLID_107_"
   style="fill:#645D5A;"
   d="M47,58H11c-2.761,0-5-2.239-5-5h46C52,55.761,49.761,58,47,58" />
	<rect
   id="XMLID_106_"
   x="21"
   y="33"
   style="fill:#DFB288;"
   width="16"
   height="6" />
	<path
   id="XMLID_105_"
   style="fill:#FAC176;"
   d="M40,11c0-6.501-5.639-11.685-12.293-10.926c-4.918,0.561-8.941,4.489-9.604,9.394   c-0.55,4.07,1.131,7.775,3.988,10.082C23.999,21.089,25,23.491,25,25.941V33h8v-7.242c0-2.37,0.989-4.682,2.844-6.157   C38.375,17.588,40,14.486,40,11" />
</g>
<g
   id="g4490">
</g>
<g
   id="g4492">
</g>
<g
   id="g4494">
</g>
<g
   id="g4496">
</g>
<g
   id="g4498">
</g>
<g
   id="g4500">
</g>
<g
   id="g4502">
</g>
<g
   id="g4504">
</g>
<g
   id="g4506">
</g>
<g
   id="g4508">
</g>
<g
   id="g4510">
</g>
<g
   id="g4512">
</g>
<g
   id="g4514">
</g>
<g
   id="g4516">
</g>
<g
   id="g4518">
</g>
<g
   id="g4869"
   transform="translate(2)"><path
     d="m 48.992791,15.850363 a 9.3545389,8.8808918 0 0 1 -9.309468,8.880788 9.3545389,8.8808918 0 0 1 -9.399175,-8.795212 9.3545389,8.8808918 0 0 1 9.218896,-8.9655403 9.3545389,8.8808918 0 0 1 9.48801,8.7088193"
     sodipodi:open="true"
     sodipodi:end="6.263913"
     sodipodi:start="0"
     sodipodi:ry="8.8808918"
     sodipodi:rx="9.3545389"
     sodipodi:cy="15.850363"
     sodipodi:cx="39.638252"
     sodipodi:type="arc"
     id="path4527-9"
     style="opacity:1;fill:url(#linearGradient4574);fill-opacity:1;fill-rule:nonzero;stroke:#000000;stroke-width:0.55559057;stroke-linecap:round;stroke-linejoin:round;stroke-miterlimit:4;stroke-dasharray:none;stroke-opacity:1;paint-order:normal" /><ellipse
     ry="8.8808918"
     rx="9.3545389"
     cy="15.840995"
     cx="14.253242"
     id="path4527-9-2"
     style="opacity:1;fill:url(#linearGradient4574-7);fill-opacity:1;fill-rule:nonzero;stroke:#000000;stroke-width:0.55559057;stroke-linecap:round;stroke-linejoin:round;stroke-miterlimit:4;stroke-dasharray:none;stroke-opacity:1;paint-order:normal" /><path
     sodipodi:nodetypes="csc"
     inkscape:connector-curvature="0"
     id="path4600"
     d="m 23.657607,15.774899 c 0,0 0.702392,-2.173711 3.359016,-2.270669 2.874405,-0.104906 3.161951,1.825783 3.161951,1.825783"
     style="fill:none;stroke:#000000;stroke-width:0.53771484;stroke-linecap:round;stroke-linejoin:round;stroke-miterlimit:4;stroke-dasharray:none;stroke-opacity:1" /></g><path
   d="m 33.565852,43.598805 c -3.07151,0 -2.893828,-2.818533 -2.893828,-2.818533 0.242243,-0.24188 1.574582,0.122212 1.574582,0.122212 l 0.04438,-0.52286 c 0,-0.443931 -2.099989,-0.645801 -3.498708,-0.645801 -1.398174,0 -3.508347,0.202415 -3.508347,0.646347 l 0.04019,0.523406 c 0,0 1.329429,-0.362638 1.571308,-0.120758 0,0 0.176954,2.820899 -2.894554,2.820899 -3.071691,0 -3.529262,-0.361546 -3.529262,-3.541628 0,-0.353181 0.03346,-0.677991 0.09839,-1.030807 0.391373,-1.07482 1.355072,-2.452806 3.728949,-2.452806 3.48525,0 4.337103,-1.220129 4.476957,-1.475103 0.238788,0.254974 1.009893,1.475103 4.495143,1.475103 2.351143,0 3.325391,1.351252 3.728949,2.421524 0.06893,0.365002 0.104025,0.698724 0.104025,1.062089 0,3.180082 -0.466299,3.536716 -3.538171,3.536716 m 4.530243,-5.884586 -6.92e-4,7.45e-4 c 0.05438,-0.80566 -0.02873,-1.787728 -0.398829,-2.9302 -0.720047,-2.223107 -6.055222,-2.36878 -8.920678,-2.36878 -2.767795,0 -8.176443,0.145673 -8.896444,2.368784 -0.360819,1.114284 -0.447932,2.076165 -0.39992,2.870367 l -7.45e-4,-3.68e-4 c -0.176227,3.820608 -0.310443,9.715014 0.243335,10.585236 0.846033,1.330158 4.735204,4.912343 9.070125,4.912343 4.335648,0 8.219362,-3.584915 9.065577,-4.914887 0.553777,-0.870222 0.415924,-6.702796 0.238243,-10.523223"
   style="fill:#000000;fill-opacity:1;fill-rule:nonzero;stroke:none;stroke-width:0.18186443"
   id="path5025"
   inkscape:connector-curvature="0" /></svg>